<svg id="b8ae9690-59d3-40ff-a8fb-9e7950904be8" data-name="Icons" xmlns="http://www.w3.org/2000/svg" viewBox="0 0 600 600"><title>icon_core</title><path d="M387.76,182.29l-75-75c-.43-.42-.87-.82-1.34-1.2-.18-.16-.38-.29-.57-.43s-.55-.43-.84-.62-.49-.3-.74-.45l-.77-.46-.77-.37-.83-.38-.76-.28-.9-.32-.77-.19c-.31-.08-.62-.17-.94-.23s-.59-.09-.88-.14-.57-.09-.86-.12c-.53,0-1.06-.08-1.59-.08h-.36c-.53,0-1.06,0-1.59.08-.29,0-.57.08-.86.12s-.59.08-.88.14-.63.15-.94.23l-.77.19c-.31.1-.6.21-.9.32l-.76.28-.83.38-.77.37-.78.46c-.24.15-.49.29-.73.45s-.57.41-.85.62-.38.27-.56.43c-.47.38-.91.78-1.34,1.2l-75,75a18,18,0,0,0,25.46,25.46L282,163.46V480a18,18,0,0,0,36,0V163.46l44.29,44.29a18,18,0,0,0,25.45-25.46Z"/></svg>