<svg id="aa3275d3-c710-4ed9-a61d-37ac8e0b740a" data-name="Icons" xmlns="http://www.w3.org/2000/svg" viewBox="0 0 600 600"><title>icon_core</title><path d="M387.76,392.25a18,18,0,0,0-25.45,0L318,436.54V120a18,18,0,0,0-36,0V436.54l-44.29-44.29a18,18,0,0,0-25.46,25.46l75,75c.43.42.87.82,1.34,1.2.18.16.38.29.57.43s.55.43.84.62.49.3.74.45.51.32.77.46l.78.37c.27.13.54.27.81.38s.53.19.79.29.58.21.88.3.53.14.79.21.61.16.91.22.63.1.94.14.53.09.8.12A17.68,17.68,0,0,0,300,498a17.48,17.48,0,0,0,1.77-.09c.28,0,.54-.08.8-.12s.63-.08.94-.14.61-.14.91-.22.54-.13.8-.21.59-.2.88-.3.52-.18.78-.29.54-.25.81-.38l.79-.37c.26-.14.51-.3.77-.46s.5-.29.74-.45.56-.41.84-.62.39-.27.57-.43c.47-.38.91-.78,1.34-1.2l75-75A18,18,0,0,0,387.76,392.25Z"/></svg>