<svg id="b67ec71d-7c0d-4f85-b99b-a733887d1cbb" data-name="Icons" xmlns="http://www.w3.org/2000/svg" viewBox="0 0 600 600"><title>attach</title><path d="M513.87,253.49a18,18,0,0,0-25.45,0L290.49,451.41c-17.94,17.95-42.12,27.54-68.08,27.09A103,103,0,0,1,122.27,378.36c-.48-26,9.14-50.14,27.08-68.09L321.48,138.15h0L334,125.63c22.37-22.37,59.77-21.37,83.37,2.23s24.61,61,2.23,83.38L240.09,390.75a20,20,0,0,1-14.26,5.85h-.22a21.83,21.83,0,0,1-21.44-21.45A20,20,0,0,1,210,360.67L385.2,185.49A18,18,0,1,0,359.74,160L184.56,335.22a55.75,55.75,0,0,0-16.39,40.29,57.84,57.84,0,0,0,57.09,57.09h.58a55.75,55.75,0,0,0,39.71-16.39L418.1,263.65h0l26.95-27c36.41-36.4,35.41-96.64-2.23-134.28S345,63.77,308.54,100.18L144.92,263.8h0l-21,21C99,309.74,85.61,343.2,86.28,379A139,139,0,0,0,221.74,514.49l2.55,0c34.86,0,67.33-13.31,91.66-37.64L513.87,278.94A18,18,0,0,0,513.87,253.49Z"/></svg>