<svg id="e8b4d7eb-69f3-4da8-9661-d3eb869b3ce0" data-name="Icons" xmlns="http://www.w3.org/2000/svg" viewBox="0 0 600 600"><title>icon_core_action</title><path d="M464.71,507H134.28a48.05,48.05,0,0,1-48-48V178.5a48.06,48.06,0,0,1,48-48H464.71a48.06,48.06,0,0,1,48,48V459A48.05,48.05,0,0,1,464.71,507ZM134.28,166.5a12,12,0,0,0-12,12V459a12,12,0,0,0,12,12H464.71a12,12,0,0,0,12-12V178.5a12,12,0,0,0-12-12Z"/><rect x="175.01" y="273.98" width="50" height="50"/><rect x="275.02" y="273.98" width="50" height="50"/><rect x="375.02" y="273.98" width="50" height="50"/><rect x="175.01" y="373.99" width="50" height="50"/><rect x="275.02" y="373.99" width="50" height="50"/><rect x="375.02" y="373.99" width="50" height="50"/><path d="M175,182.06a26,26,0,0,1-26-26V100a26,26,0,0,1,52,0v56.06A26,26,0,0,1,175,182.06Z"/><path d="M425,182.06a26,26,0,0,1-26-26V100a26,26,0,0,1,52,0v56.06A26,26,0,0,1,425,182.06Z"/><rect x="112.86" y="155.06" width="376.07" height="83.21"/></svg>