<svg id="f41b4858-b7f9-4cff-8ec7-e65cd326eebb" data-name="Icons" xmlns="http://www.w3.org/2000/svg" viewBox="0 0 600 600"><path d="M429.93,408h-55.7a18,18,0,0,1,0-36h55.83a77,77,0,0,0,.7-154,18,18,0,0,1-16.47-11.17,130.58,130.58,0,0,0-121.22-81.31c-69,0-126.46,53.93-130.71,122.77a18,18,0,0,1-17.69,16.89A53.41,53.41,0,0,0,145.49,372h72.43a18,18,0,0,1,0,36H145.49a89.42,89.42,0,0,1-17.42-177.13c12.4-80.39,82.13-141.34,165-141.34a167,167,0,0,1,149.82,93.21,113,113,0,0,1-13,225.26Z"/><path d="M297.09,539.18a18,18,0,0,1-12.73-5.27l-55.09-55.09a18,18,0,0,1,25.45-25.46l42.37,42.37,42.36-42.37a18,18,0,0,1,25.46,25.46l-55.09,55.09A18,18,0,0,1,297.09,539.18Z"/><path d="M297.09,535.73a18,18,0,0,1-18-18V308a18,18,0,0,1,36,0V517.73A18,18,0,0,1,297.09,535.73Z"/></svg>