<svg id="facaf676-8125-40be-85f5-aa65b4e83151" data-name="Icons" xmlns="http://www.w3.org/2000/svg" viewBox="0 0 600 600"><path d="M129.08,476.4a18,18,0,0,1-17.22-23.26l22.73-74.26A166.87,166.87,0,0,1,106,285.65c0-48,20.48-93.12,57.67-126.92,36.71-33.36,85.4-51.73,137.1-51.73s100.39,18.37,137.1,51.73c37.19,33.8,57.67,78.88,57.67,126.92s-20.48,93.13-57.67,126.93c-36.71,33.36-85.4,51.73-137.1,51.73a210.11,210.11,0,0,1-85.57-18.12l-80,29.13A18.05,18.05,0,0,1,129.08,476.4ZM300.78,143C213.24,143,142,207,142,285.65c0,28.39,9.27,55.8,26.8,79.3a18,18,0,0,1,2.78,16l-14.73,48.15,53.08-19.34a18,18,0,0,1,14.17.8,173.15,173.15,0,0,0,76.67,17.72c87.54,0,158.77-64,158.77-142.66S388.32,143,300.78,143Z"/><path d="M372.55,270h-142a18,18,0,0,1,0-36h142a18,18,0,0,1,0,36Z"/><path d="M371.55,349h-95a18,18,0,1,1,0-36h95a18,18,0,0,1,0,36Z"/></svg>