<svg id="f44c0560-4a4a-4ee5-9706-3b508ff581bb" data-name="Icons" xmlns="http://www.w3.org/2000/svg" viewBox="0 0 600 600"><path d="M407,501H177a78.09,78.09,0,0,1-78-78V193a78.09,78.09,0,0,1,78-78H282a18,18,0,0,1,0,36H177a42,42,0,0,0-42,42V423a42,42,0,0,0,42,42H407a42,42,0,0,0,42-42V318a18,18,0,0,1,36,0V423A78.09,78.09,0,0,1,407,501Z"/><path d="M494.22,246.37a18,18,0,0,1-18-18V123.78H371.63a18,18,0,0,1,0-36H494.22a18,18,0,0,1,18,18V228.37A18,18,0,0,1,494.22,246.37Z"/><path d="M292,326a18,18,0,0,1-12.73-30.73L481.49,93.05A18,18,0,1,1,507,118.51L304.7,320.76A18,18,0,0,1,292,326Z"/></svg>