<svg id="b487e35d-452b-4cfb-8411-361d1133a719" data-name="Icons" xmlns="http://www.w3.org/2000/svg" viewBox="0 0 600 600"><path d="M299,488.69A17.94,17.94,0,0,1,286.84,484L260.7,460c-39.62-35.83-67.47-61.91-82.76-77.49-26-26.29-44.45-49.32-56.4-70.34C106.9,287.38,99.48,262,99.48,236.8a116.8,116.8,0,0,1,15.74-59.44,115.47,115.47,0,0,1,42.57-42.55c17.83-10.28,37.88-15.5,59.61-15.5,16.92,0,34.17,4.34,52.74,13.25,11.27,5.41,20.75,14.35,28.86,23.35,8.11-9,17.59-17.94,28.86-23.35,18.57-8.91,36-13.25,53.17-13.25a118,118,0,0,1,59.33,15.47,113.21,113.21,0,0,1,42.7,42.69,118.05,118.05,0,0,1,15.46,59.33c0,25.18-7.26,50.65-21.57,75.69,0,.05-.05.09-.07.13-12.05,20.69-31.15,44.33-56.79,70.28-15.63,16.22-43.34,42.45-82.36,78l-.31.28-26.61,23.12A17.94,17.94,0,0,1,299,488.69ZM217.4,155.31c-15.55,0-29.16,3.5-41.62,10.69a78.71,78.71,0,0,0-29.43,29.45,80.15,80.15,0,0,0-10.87,41.35c0,18.74,5.76,38,17.12,57.16a2.75,2.75,0,0,1,.17.29c10.22,18,27.32,39.21,50.82,63,14.85,15.13,42.19,40.72,81.3,76.1l.09.08,14.34,13.14,14.33-12.45c38.43-35,65.54-60.65,80.6-76.28l.16-.16c23.52-23.79,40.79-45,51.32-63.1,11.14-19.52,16.79-38.95,16.79-57.77a81.33,81.33,0,0,0-10.72-41.47A76.72,76.72,0,0,0,422.5,166,81.38,81.38,0,0,0,381,155.31c-11.69,0-24,3.18-37.59,9.7-9.07,4.36-18.75,16-26.52,25.34-1.45,1.73-2.85,3.41-4.2,5a18,18,0,0,1-27.44,0c-1.35-1.6-2.75-3.28-4.2-5-7.77-9.35-17.45-21-26.52-25.34C241,158.49,228.81,155.31,217.4,155.31ZM461.32,303.56h0Z"/></svg>