<svg id="f4fa3bb8-92a0-4822-a46c-55cee60a9d8c" data-name="Icons" xmlns="http://www.w3.org/2000/svg" viewBox="0 0 600 600"><title>icon_core_action</title><path d="M240.09,419.2H125.14v-294H275.08v50.74a24.76,24.76,0,0,0,24.76,24.76h39.3v50.73a18,18,0,0,0,36,0v-75.2a18,18,0,0,0-4.47-11.87l-60.58-69a18,18,0,0,0-13.53-6.13H107.14a18,18,0,0,0-18,18v330a18,18,0,0,0,18,18h133a18,18,0,0,0,0-36Z"/><path d="M284.14,248.2h-104a18,18,0,0,0,0,36h104a18,18,0,0,0,0-36Z"/><path d="M252.14,316.2h-72a18,18,0,1,0,0,36h72a18,18,0,0,0,0-36Z"/><path d="M531.79,506.34l-46.16-46.17A103.12,103.12,0,1,0,328.19,474h0a103.29,103.29,0,0,0,132,11.61l46.17,46.16a18,18,0,0,0,25.45-25.45ZM353.64,448.56h0a67.12,67.12,0,1,1,94.92,0A67.19,67.19,0,0,1,353.64,448.56Z"/></svg>