<svg id="ef2d74e5-c468-4e72-a3d9-32df3c4efb44" data-name="Icons" xmlns="http://www.w3.org/2000/svg" viewBox="0 0 600 600"><path d="M395,511H145a18,18,0,0,1-18-18V163a18,18,0,0,1,18-18H334.42A18,18,0,0,1,348,151.13l60.58,69A18,18,0,0,1,413,232V493A18,18,0,0,1,395,511ZM163,475H377V238.81L326.27,181H163Z"/><path d="M454,420H395a18,18,0,0,1,0-36h41V177.81L385.27,120H242v43a18,18,0,0,1-36,0V102a18,18,0,0,1,18-18H393.42A18,18,0,0,1,407,90.13l60.58,69A18,18,0,0,1,472,171V402A18,18,0,0,1,454,420Z"/><path d="M395,256.5H337.7a24.77,24.77,0,0,1-24.76-24.76V163h25.89L395,221.91Z"/><path d="M322,340H218a18,18,0,0,1,0-36H322a18,18,0,0,1,0,36Z"/><path d="M290,408H218a18,18,0,0,1,0-36h72a18,18,0,0,1,0,36Z"/></svg>