<svg id="ed77c824-00c2-4519-ac5e-ad30bb7d4f01" data-name="Icons" xmlns="http://www.w3.org/2000/svg" viewBox="0 0 600 600"><title>icon_core_action</title><path d="M456,491H144a62.07,62.07,0,0,1-62-62V158a38,38,0,0,1,38-38H307a18,18,0,0,1,15.61,9l29.81,52H456a62.07,62.07,0,0,1,62,62V429A62.07,62.07,0,0,1,456,491ZM120,156a2,2,0,0,0-2,2V429a26,26,0,0,0,26,26H456a26,26,0,0,0,26-26V243a26,26,0,0,0-26-26H342a18,18,0,0,1-15.61-9l-29.81-52Z"/><circle cx="210" cy="326" r="26"/><circle cx="300" cy="326" r="26"/><circle cx="390" cy="326" r="26"/></svg>