<svg id="ecda0a57-899a-4336-9379-df95a4251a84" data-name="Icons" xmlns="http://www.w3.org/2000/svg" viewBox="0 0 600 600"><path d="M456,475H144a62.07,62.07,0,0,1-62-62V166a38,38,0,0,1,38-38H273a18,18,0,0,1,15.61,9l29.81,52H456a62.07,62.07,0,0,1,62,62V413A62.07,62.07,0,0,1,456,475ZM120,164a2,2,0,0,0-2,2V413a26,26,0,0,0,26,26H456a26,26,0,0,0,26-26V251a26,26,0,0,0-26-26H308a18,18,0,0,1-15.61-9l-29.81-52Z"/><circle cx="210" cy="326" r="26"/><circle cx="300" cy="326" r="26"/><circle cx="390" cy="326" r="26"/></svg>