<svg id="b663fb2e-45db-4f92-99fe-c8e741dfd01d" data-name="Icons" xmlns="http://www.w3.org/2000/svg" viewBox="0 0 600 600"><path d="M452.32,118.44H147.68A72.68,72.68,0,0,0,75,191.12V400.77a72.67,72.67,0,0,0,72.68,72.67H452.32A72.67,72.67,0,0,0,525,400.77V191.12A72.68,72.68,0,0,0,452.32,118.44Zm-304.64,50H452.32A22.7,22.7,0,0,1,475,190.82l-175.46,99.9L125,190.92A22.72,22.72,0,0,1,147.68,168.44Zm304.64,255H147.68A22.7,22.7,0,0,1,125,400.77V248.51l174.47,99.77L475,248.35V400.77A22.7,22.7,0,0,1,452.32,423.44Z"/></svg>