<svg id="bbc83f7d-3c37-44b8-8324-bc9df07099a7" data-name="Icons" xmlns="http://www.w3.org/2000/svg" viewBox="0 0 600 600"><path d="M395.43,488.77H115A38.86,38.86,0,0,1,76.17,450V417.9q0-.48,0-1c0-.54,0-1.06,0-1.58,0-43.32,47-79.82,118.51-93.43V310.26c-24.28-24.48-39.62-61.38-39.62-96.38,0-28.45,10.55-54.26,29.7-72.69,18.49-17.79,43.66-27.59,70.86-27.59s52.38,9.8,70.87,27.59c19.15,18.43,29.7,44.24,29.7,72.69,0,35-15.34,71.9-39.62,96.38v27.07a18,18,0,0,1-36,0V302.47a18,18,0,0,1,6.19-13.58c19.68-17.1,33.43-47.95,33.43-75,0-18.84-6.45-35-18.66-46.75-11.75-11.3-28-17.53-45.91-17.53s-34.15,6.23-45.9,17.53c-12.21,11.75-18.66,27.91-18.66,46.75,0,27.06,13.74,57.91,33.42,75a18,18,0,0,1,6.2,13.58v34.75a18,18,0,0,1-15.55,17.83c-30.84,4.24-58.36,13.42-77.51,25.86-9.5,6.17-25.45,18.85-25.45,34.45,0,.39,0,.83.06,1.4a17.76,17.76,0,0,1-.06,2.92V450a2.82,2.82,0,0,0,2.82,2.81H395.43a18,18,0,1,1,0,36Z"/><path d="M516,353H376a18,18,0,0,1,0-36H516a18,18,0,0,1,0,36Z"/><path d="M446,423a18,18,0,0,1-18-18V265a18,18,0,0,1,36,0V405A18,18,0,0,1,446,423Z"/></svg>