<svg id="a6723782-600d-4585-9cac-8386b33be71e" data-name="Icons" xmlns="http://www.w3.org/2000/svg" viewBox="0 0 600 600"><path d="M402,488.77H121.54A38.85,38.85,0,0,1,82.73,450V417.9c0-.32,0-.64,0-.95,0-.54,0-1.07,0-1.59,0-43.32,47-79.82,118.5-93.43V310.26c-24.28-24.48-39.62-61.38-39.62-96.38,0-28.45,10.55-54.26,29.7-72.69C209.8,123.4,235,113.6,262.18,113.6s52.37,9.8,70.86,27.59c19.15,18.43,29.7,44.24,29.7,72.69,0,35-15.34,71.9-39.62,96.38v11.82c29.82,5.77,55.91,15.62,76.13,28.83C426,368.4,440.8,391.29,440.8,415.36q0,.78,0,1.59c0,.31,0,.63,0,.95V450A38.86,38.86,0,0,1,402,488.77ZM118.73,419.68V450a2.81,2.81,0,0,0,2.81,2.81H402A2.81,2.81,0,0,0,404.8,450V419.64a16.51,16.51,0,0,1-.05-2.9c0-.54.05-1,.05-1.38,0-15.52-15.81-28.16-25.23-34.31-19-12.4-46.31-21.59-76.95-25.89a18,18,0,0,1-15.5-17.83V302.47a18,18,0,0,1,6.2-13.58c19.68-17.1,33.42-47.95,33.42-75,0-18.84-6.45-35-18.66-46.75-11.75-11.3-28.05-17.53-45.9-17.53s-34.16,6.23-45.91,17.53c-12.21,11.75-18.66,27.91-18.66,46.75,0,27.06,13.74,57.91,33.43,75a18,18,0,0,1,6.19,13.58v34.75a18,18,0,0,1-15.55,17.83c-30.83,4.24-58.36,13.42-77.51,25.86-9.5,6.17-25.44,18.85-25.44,34.45,0,.39,0,.84,0,1.38A19.2,19.2,0,0,1,118.73,419.68Z"/><path d="M522,224H422a18,18,0,0,1,0-36H522a18,18,0,0,1,0,36Z"/><path d="M522,298H422a18,18,0,0,1,0-36H522a18,18,0,0,1,0,36Z"/></svg>