<svg id="b4f4623d-8b52-46a2-8735-434c517e4064" data-name="Icons" xmlns="http://www.w3.org/2000/svg" viewBox="0 0 600 600"><title>icon_core_action</title><path d="M395.26,495.17H114.82A38.86,38.86,0,0,1,76,456.35V424.29c0-.32,0-.63,0-1,0-.54,0-1.06,0-1.58,0-43.32,47-79.83,118.5-93.44V316.65c-24.27-24.48-39.62-61.37-39.62-96.38,0-28.44,10.55-54.26,29.71-72.68C203.08,129.8,228.24,120,255.45,120s52.37,9.8,70.86,27.59C345.47,166,356,191.83,356,220.27c0,35-15.34,71.9-39.62,96.38v11.83c29.82,5.76,55.91,15.61,76.14,28.82,26.79,17.49,41.54,40.39,41.54,64.46,0,.52,0,1,0,1.59,0,.31,0,.62,0,.94v32.06A38.86,38.86,0,0,1,395.26,495.17ZM112,426.08v30.27a2.82,2.82,0,0,0,2.82,2.82H395.26a2.81,2.81,0,0,0,2.81-2.82V426a18.32,18.32,0,0,1-.05-2.87c0-.56.05-1,.05-1.4,0-15.53-15.8-28.17-25.23-34.32-19-12.39-46.31-21.59-76.95-25.89a18,18,0,0,1-15.5-17.82V308.87a18,18,0,0,1,6.2-13.59c19.68-17.1,33.42-47.94,33.42-75,0-18.83-6.45-35-18.66-46.74C289.6,162.23,273.3,156,255.45,156s-34.16,6.23-45.91,17.53c-12.2,11.75-18.66,27.91-18.66,46.74,0,27.07,13.75,57.91,33.43,75a18,18,0,0,1,6.19,13.59v34.75A18,18,0,0,1,215,361.45c-30.83,4.23-58.36,13.42-77.51,25.85-9.5,6.17-25.44,18.86-25.44,34.46,0,.39,0,.84,0,1.37A17.07,17.07,0,0,1,112,426.08Z"/><path d="M504.81,467.17H476.58a18,18,0,0,1,0-36h28.23a2.81,2.81,0,0,0,2.81-2.82V398a18.66,18.66,0,0,1-.05-2.9c0-.53.05-1,.05-1.37,0-15.53-15.8-28.17-25.22-34.32-19-12.39-46.32-21.59-76.95-25.89A18,18,0,0,1,390,315.73V280.87a18,18,0,0,1,6.19-13.59c19.68-17.1,33.43-47.94,33.43-75,0-18.83-6.46-35-18.67-46.74-11.75-11.3-28-17.53-45.9-17.53a18,18,0,0,1,0-36c27.21,0,52.37,9.8,70.86,27.59C455,138,465.57,163.83,465.57,192.27c0,35-15.35,71.9-39.62,96.38v11.83c29.81,5.76,55.9,15.61,76.13,28.82,26.79,17.49,41.54,40.39,41.54,64.46,0,.52,0,1,0,1.59,0,.31,0,.62,0,.94v32.06A38.86,38.86,0,0,1,504.81,467.17Z"/></svg>