<svg id="be5d0bd0-2fbc-43e4-bba1-0ecead1e97a2" data-name="Icons" xmlns="http://www.w3.org/2000/svg" viewBox="0 0 600 600"><path d="M430.8,86.6q56.49,29.58,88.2,82.86T550.7,291q0,68.22-25,107.11T455.85,437q-25.58,0-42.36-13.05T391.9,386.35a106.5,106.5,0,0,1-41.83,37.57Q324.22,437,290.66,437q-37.32,0-67.15-17.58a123.25,123.25,0,0,1-46.63-48.76Q160.1,339.44,160.1,300q0-38.89,16.78-70.08a121.38,121.38,0,0,1,46.63-48.49q29.84-17.31,67.15-17.32,30.88,0,55.95,11.46a105.44,105.44,0,0,1,41.56,33.84V166.26h46.36V358.1q0,19.72,8.53,29t21.85,9.32q23.44,0,36.5-27.44t13.06-77.54q0-59.15-26.65-104.18T413,117.24q-48.22-25-110.57-25-62.88,0-111.11,26.12t-74.87,73Q89.74,238.22,89.76,298.42q0,60.75,26.37,107.64t74.08,73.28q47.68,26.37,110,26.37a252.25,252.25,0,0,0,53.29-5.86,195.08,195.08,0,0,0,49.55-17.58l11.73,34.1Q391.36,528.63,360.46,535a297.07,297.07,0,0,1-60.21,6.4q-73,0-129.76-31.18T82.3,423.65Q50.85,368.23,50.86,298.42t31.7-124.69q31.71-54.89,89-85.8T302.38,57Q374.32,57,430.8,86.6ZM344.74,383.68a85,85,0,0,0,32.51-33.3q12-21.58,12-50.36t-12-50.36a83.24,83.24,0,0,0-32.51-33q-20.52-11.44-46.62-11.45-40.51,0-65.55,25.84t-25,69q0,43.16,25.31,69.27t65.28,26.12Q324.22,395.41,344.74,383.68Z"/></svg>