<svg id="b7d743e3-8fa3-44e9-bd46-e9849ed68cde" data-name="Icons" xmlns="http://www.w3.org/2000/svg" viewBox="0 0 600 600"><title>icon_core_action</title><path d="M241.53,375.7H110.42a36.2,36.2,0,0,1-36.15-36.15V228.64a36.2,36.2,0,0,1,36.15-36.15H241.53a36.2,36.2,0,0,1,36.15,36.15V339.55A36.2,36.2,0,0,1,241.53,375.7ZM110.42,228.49a.15.15,0,0,0-.15.15V339.55a.15.15,0,0,0,.15.15H241.53a.15.15,0,0,0,.15-.15V228.64a.15.15,0,0,0-.15-.15Z"/><path d="M507.73,474a18,18,0,0,1-11.61-4.25c-1.22-1-123.43-102.95-236.73-107.15a18,18,0,0,1-17.33-18V223.62a18,18,0,0,1,17.33-18C372.93,201.43,494.9,99.52,496.12,98.49a18,18,0,0,1,29.61,13.75V456a18,18,0,0,1-18,18ZM278.06,327.84c48.73,5.23,102.56,24.88,160.29,58.55,20.37,11.88,37.89,23.6,51.38,33.22v-271c-13.49,9.62-31,21.34-51.38,33.22-57.73,33.67-111.56,53.32-160.29,58.55Z"/><path d="M217,503.76H171.62a18,18,0,0,1-17.29-13L117.66,363.93a18,18,0,0,1,17.29-23H217a18,18,0,0,1,18,18V485.76A18,18,0,0,1,217,503.76Zm-31.85-36H199V376.93H158.89Z"/></svg>