<svg id="b46e35f3-839e-48d3-b285-3ac05d65eccf" data-name="Icons" xmlns="http://www.w3.org/2000/svg" viewBox="0 0 600 600"><path d="M299,513C181.55,513,86,417.45,86,300S181.55,87,299,87s213,95.55,213,213S416.45,513,299,513Zm0-390c-97.6,0-177,79.4-177,177s79.4,177,177,177,177-79.4,177-177S396.6,123,299,123Z"/><path d="M316,355.46H284.65v-16a67.31,67.31,0,0,1,1.67-15.67,49.31,49.31,0,0,1,4.83-12.67,64.58,64.58,0,0,1,7.67-10.83q4.5-5.16,10.16-10.5l12.34-11.67a64.23,64.23,0,0,0,12.16-13.83q4.83-7.5,4.84-19.17,0-16-10.17-25.5T302,210.12q-16.67,0-26.66,10.67a43.87,43.87,0,0,0-11.67,26l-32-3.67A74.37,74.37,0,0,1,240,217.29a68,68,0,0,1,15.84-19.5,66.91,66.91,0,0,1,21.83-12.17A81.93,81.93,0,0,1,304,181.46a83.18,83.18,0,0,1,26.17,4,64.22,64.22,0,0,1,21.5,11.83,55.28,55.28,0,0,1,14.67,19.33q5.32,11.5,5.33,26.5a67.12,67.12,0,0,1-2.33,18.67,55.88,55.88,0,0,1-6.5,14.5,65.28,65.28,0,0,1-10.17,12.17q-6,5.67-13,11.66-6.67,5.69-11.33,10.17a41.36,41.36,0,0,0-7.34,9.17,34.87,34.87,0,0,0-3.83,10.33,70.74,70.74,0,0,0-1.17,14Zm8.34,47A21.61,21.61,0,0,1,318,417.79a21.1,21.1,0,0,1-16,6.67,21.55,21.55,0,0,1-15.83-6.5,20.8,20.8,0,0,1-6.5-15.17,21.91,21.91,0,0,1,22.33-22,21.72,21.72,0,0,1,16,6.33A20.93,20.93,0,0,1,324.32,402.46Z"/></svg>