<svg id="ff128ea2-95e5-472c-b282-deef38cfa47b" data-name="Icons" xmlns="http://www.w3.org/2000/svg" viewBox="0 0 600 600"><path d="M300,513C182.55,513,87,417.45,87,300S182.55,87,300,87s213,95.55,213,213S417.45,513,300,513Zm0-390c-97.6,0-177,79.4-177,177s79.4,177,177,177,177-79.4,177-177S397.6,123,300,123Z"/><path d="M282.92,418.9a23.75,23.75,0,0,1,0-33.79,24,24,0,0,1,17.45-6.87q10.39,0,17.09,6.87a23.33,23.33,0,0,1,6.68,16.9,23.46,23.46,0,0,1-23.77,23.76A24,24,0,0,1,282.92,418.9Zm-3.71-244.3h42l-7.06,177.88H285.89Z"/></svg>