<svg id="e1bb4370-33cc-4450-b2b0-b562888da801" data-name="Icons" xmlns="http://www.w3.org/2000/svg" viewBox="0 0 600 600"><path d="M300,513C182.55,513,87,417.45,87,300S182.55,87,300,87s213,95.55,213,213S417.45,513,300,513Zm0-390c-97.6,0-177,79.4-177,177s79.4,177,177,177,177-79.4,177-177S397.6,123,300,123Z"/><path d="M271.58,203.61A25.5,25.5,0,0,1,279.51,185q7.94-7.93,20.12-7.94t20.49,7.57a25.92,25.92,0,0,1,0,38q-8.31,7.57-20.49,7.57t-20.12-7.94A25.5,25.5,0,0,1,271.58,203.61Zm6.27,53.17h44.3V423h-44.3Z"/></svg>