<svg id="e9a8d132-42e0-4fdf-9a2d-fce576fad82b" data-name="Icons" xmlns="http://www.w3.org/2000/svg" viewBox="0 0 600 600"><path d="M462.85,467.19H135.59a47.23,47.23,0,0,1,0-94.45h2.17L159.27,222.2a142.17,142.17,0,0,1,87.45-111.51v-7.24a53,53,0,1,1,106,0v7.29A142.22,142.22,0,0,1,440,222.2l21.5,150.54h1.31a47.23,47.23,0,0,1,0,94.45ZM135.59,408.74a11.23,11.23,0,0,0,0,22.45H462.85a11.23,11.23,0,0,0,0-22.45H445.93a18,18,0,0,1-17.82-15.45l-23.71-166a106.06,106.06,0,0,0-74.78-86.52,18,18,0,0,1-12.9-17.26V103.45a17,17,0,1,0-34,0v20a18,18,0,0,1-12.92,17.27,106,106,0,0,0-74.89,86.56l-23.72,166a18,18,0,0,1-17.82,15.45Z"/><path d="M299.22,548a98.92,98.92,0,0,1-98.8-98.81,18,18,0,0,1,36,0,62.8,62.8,0,1,0,125.6,0,18,18,0,0,1,36,0A98.92,98.92,0,0,1,299.22,548Z"/></svg>