<svg id="bcbf35fc-3899-4c72-a8a6-131582b7657b" data-name="Icons" xmlns="http://www.w3.org/2000/svg" viewBox="0 0 600 600"><title>icon_core</title><path d="M329.57,145.08a119.09,119.09,0,0,1,61.85,16.67A123.59,123.59,0,0,1,435.73,206a119.19,119.19,0,0,1,16.68,61.88,18,18,0,0,0,36,0,156.35,156.35,0,0,0-21.64-80.11,159.09,159.09,0,0,0-57.12-57.1,156.26,156.26,0,0,0-80.08-21.63,18,18,0,1,0,0,36Z"/><path d="M320.57,216.42a58.62,58.62,0,0,1,30.36,8.07A59.81,59.81,0,0,1,373,246.55a58.75,58.75,0,0,1,8.06,30.37,18,18,0,0,0,36,0,95,95,0,0,0-13-48.51,96.24,96.24,0,0,0-35-35,95.08,95.08,0,0,0-48.5-13,18,18,0,0,0,0,36Z"/><path d="M479.15,349.55A37.48,37.48,0,0,0,453,339.13c-23.22,0-44.34-3.31-62.75-9.73-.39-.13-.79-.26-1.19-.37a43,43,0,0,0-18.45-.85,33.77,33.77,0,0,0-19.81,10.93,18.81,18.81,0,0,0-1.45,1.88l-13.79,20.4c-22.66-12.94-41.45-27-57.17-42.72-16.11-16.1-30.35-35.3-43.3-58.44l16.32-14.5a33.71,33.71,0,0,0,10.94-19.85,47,47,0,0,0-.56-17.14c-1.88-9.61-3.14-19.15-4.47-29.26-1.7-12.85-3.62-27.42-7.17-44.22a36.73,36.73,0,0,0-15-22.89A36.12,36.12,0,0,0,214.22,106H214l-72.5,1a36.4,36.4,0,0,0-26.77,11.55,37.17,37.17,0,0,0-10.21,25.88,350,350,0,0,0,213,321A345.91,345.91,0,0,0,453.05,493h0a37.2,37.2,0,0,0,25.86-10.21,36.43,36.43,0,0,0,11.55-26.92v-79.6A36.4,36.4,0,0,0,479.15,349.55ZM454.49,455.87a2.71,2.71,0,0,1,0,.45,2.65,2.65,0,0,1-.38.43,1.71,1.71,0,0,1-1,.25h0A310.19,310.19,0,0,1,331.6,432.3,315.29,315.29,0,0,1,165.19,265.9a309.81,309.81,0,0,1-24.7-121.49,1.68,1.68,0,0,1,.25-1,2.6,2.6,0,0,1,.4-.37,2,2,0,0,1,.48,0h.25l72.43-1a1.87,1.87,0,0,1,.34,0,2.13,2.13,0,0,1,.25.67c3.26,15.44,5,28.68,6.7,41.49,1.41,10.68,2.74,20.76,4.83,31.47a17.07,17.07,0,0,1,.44,3.69l-26.33,23.4a18,18,0,0,0-4.07,21.64c16.41,32.1,34.87,58.19,56.43,79.74S300.62,384.25,333,401a18,18,0,0,0,23.17-5.91l21.29-31.5a6.28,6.28,0,0,1,1.67.09c22,7.57,46.82,11.42,73.74,11.46a2.31,2.31,0,0,1,1.21.28,3.71,3.71,0,0,1,.34.38,1.9,1.9,0,0,1,0,.48Z"/></svg>