<svg id="e1aa6a52-64e3-4bf3-9b82-1032a42a6e2c" data-name="Icons" xmlns="http://www.w3.org/2000/svg" viewBox="0 0 600 600"><path d="M466.79,271.1a46.9,46.9,0,0,1-33.28-13.77l-88-88a47.07,47.07,0,1,1,66.57-66.57h0l88,88a47.06,47.06,0,0,1-33.28,80.34Zm-88-146.1A11.06,11.06,0,0,0,371,143.89l88,88a11.07,11.07,0,0,0,15.66-15.66l-88-88A11,11,0,0,0,378.81,125Z"/><path d="M336.69,459.43A18,18,0,0,1,324,454.15L148.7,278.89a18,18,0,0,1,4.52-28.74l66.94-34.32a18,18,0,0,1,20.94,3.29L383.73,361.75A18,18,0,0,1,387,382.69l-34.31,66.95a18,18,0,0,1-13.23,9.57A18.73,18.73,0,0,1,336.69,459.43ZM191.63,270.91,331.94,411.22,349,377.94,224.92,253.85Z"/><path d="M352.76,374.24A18,18,0,0,1,340,369L233.89,262.82A18,18,0,0,1,236,235.6l118.14-87a18,18,0,0,1,23.4,1.77l75,75a18,18,0,0,1,1.77,23.4l-87,118.14a18,18,0,0,1-13.14,7.28C353.66,374.22,353.21,374.24,352.76,374.24ZM274.15,252.17l76.53,76.53,65.38-88.82L363,186.79Z"/><path d="M123.64,497.22a18,18,0,0,1-12.73-30.73L236.33,341.07a18,18,0,1,1,25.46,25.45L136.37,491.94A17.94,17.94,0,0,1,123.64,497.22Z"/></svg>