<svg id="fc5e6274-2b0c-4515-aae1-3f4e185d0307" data-name="Icons" xmlns="http://www.w3.org/2000/svg" viewBox="0 0 600 600"><path d="M332.91,543H268a18,18,0,0,1-17.72-14.86l-7.53-42.55a192.21,192.21,0,0,1-32.49-13.36l-35.8,24.91a18,18,0,0,1-23-2.05l-45.9-45.89a18,18,0,0,1-2-23l24.77-35.45a193.23,193.23,0,0,1-13.54-32.42l-42.92-7.66A18,18,0,0,1,57,332.91V268a18,18,0,0,1,14.85-17.72l42.59-7.58a192.39,192.39,0,0,1,13.37-32.47l-24.94-35.75a18,18,0,0,1,2-23l45.89-45.9a18,18,0,0,1,23-2l35.51,24.74a193.38,193.38,0,0,1,32.41-13.55l7.63-42.85A18,18,0,0,1,267.09,57H332a18,18,0,0,1,17.71,14.83l7.61,42.54a193.39,193.39,0,0,1,32.51,13.36l35.7-24.87a18,18,0,0,1,23,2l45.9,45.9a18,18,0,0,1,2,23l-24.69,35.42a193.08,193.08,0,0,1,13.54,32.44l42.83,7.69A18,18,0,0,1,543,267.09V332a18,18,0,0,1-14.85,17.72l-42.49,7.55a192.89,192.89,0,0,1-13.36,32.51l24.85,35.77a18,18,0,0,1-2.06,23l-45.89,45.9a18,18,0,0,1-23.05,2l-35.38-24.73a193.23,193.23,0,0,1-32.42,13.54l-7.73,42.9A18,18,0,0,1,332.91,543Zm-49.82-36h34.77l7.05-39.17a18,18,0,0,1,13.38-14.29,157.28,157.28,0,0,0,44.1-18.42,18,18,0,0,1,19.69.61l32.33,22.6L459,433.74l-22.7-32.66a18,18,0,0,1-.63-19.56,157.3,157.3,0,0,0,18.16-44.2,18,18,0,0,1,14.35-13.49L507,316.92V282.15l-39.1-7a18,18,0,0,1-14.29-13.38,157.15,157.15,0,0,0-18.42-44.1,18,18,0,0,1,.59-19.67l22.57-32.38L433.76,141l-32.59,22.7a18,18,0,0,1-19.58.65,157,157,0,0,0-44.21-18.17,18,18,0,0,1-13.48-14.32l-7-38.88H282.17l-7,39.11a18,18,0,0,1-13.39,14.32,157.16,157.16,0,0,0-44.08,18.43,18,18,0,0,1-19.67-.59L165.6,141.65,141,166.24l22.77,32.64a18,18,0,0,1,.66,19.59,156.78,156.78,0,0,0-18.18,44.18,18,18,0,0,1-14.34,13.49L93,283.07v34.77l39.19,7a18,18,0,0,1,14.3,13.38,156.89,156.89,0,0,0,18.43,44.1,18,18,0,0,1-.61,19.69l-22.64,32.4L166.25,459,199,436.24a18,18,0,0,1,19.57-.64,156.91,156.91,0,0,0,44.2,18.17,18,18,0,0,1,13.49,14.36ZM525,332h0Z"/><path d="M300.44,393.44a93,93,0,1,1,93-93A93.11,93.11,0,0,1,300.44,393.44Zm0-150a57,57,0,1,0,57,57A57.06,57.06,0,0,0,300.44,243.44Z"/></svg>