<svg id="fc613a96-b3dc-4e64-90c9-a71f5d1aedc5" data-name="Icons" xmlns="http://www.w3.org/2000/svg" viewBox="0 0 600 600"><path d="M300.5,538.5A238.49,238.49,0,0,1,131.86,131.36,236.9,236.9,0,0,1,300.5,61.5,241.7,241.7,0,0,1,332,63.57a14,14,0,0,1-3.66,27.76A212,212,0,0,0,300.5,89.5C184.43,89.5,90,183.93,90,300s94.43,210.5,210.5,210.5S511,416.07,511,300a213.6,213.6,0,0,0-1.81-27.74A14,14,0,0,1,537,268.61,241.34,241.34,0,0,1,539,300,238.5,238.5,0,0,1,300.5,538.5Z"/><path d="M300.16,452.24c-62,0-118-39.72-142.75-101.18a14,14,0,0,1,26-10.45c20.43,50.8,66.27,83.63,116.77,83.63,51.22,0,97.31-33.47,117.43-85.27a14,14,0,1,1,26.1,10.13C419.36,411.75,363,452.24,300.16,452.24Z"/><circle cx="220.4" cy="246.99" r="32.15"/><circle cx="378.63" cy="246.99" r="32.15"/><path d="M470,208a15,15,0,0,1-15-15V65a15,15,0,0,1,30,0V193A15,15,0,0,1,470,208Z"/><path d="M534,144H406a15,15,0,0,1,0-30H534a15,15,0,0,1,0,30Z"/></svg>