<svg id="bf790fc5-e4a9-4736-9ac9-5513126a769a" data-name="Icons" xmlns="http://www.w3.org/2000/svg" viewBox="0 0 600 600"><path d="M300,78a221.21,221.21,0,1,1-86.4,17.43A220.72,220.72,0,0,1,300,78m0-28C161.93,50,50,161.93,50,300S161.93,550,300,550,550,438.07,550,300,438.07,50,300,50Z"/><path d="M299.62,467.94c-68.38,0-130.2-43.84-157.49-111.68a14,14,0,0,1,26-10.44c23,57.17,74.62,94.12,131.51,94.12,57.7,0,109.61-37.67,132.25-96A14,14,0,1,1,458,354.11C431.12,423.26,369,467.94,299.62,467.94Z"/><circle cx="210.8" cy="240.96" r="35.8"/><circle cx="387" cy="240.96" r="35.8"/></svg>