<svg id="b5ec5dea-bf6d-4e2a-9999-37393129140d" data-name="Icons" xmlns="http://www.w3.org/2000/svg" viewBox="0 0 600 600"><title>icon_core_action</title><path d="M397,151.47c13,0,24.51,2.93,35.07,9a63.22,63.22,0,0,1,24.16,24.16c6,10.55,9,22,9,35.07,0,17.52-5.27,35.29-16.12,54.33-11.31,19.37-30.32,42.64-56.53,69.15l-.22.22-.22.23c-17.11,17.76-48,47-91.74,86.87-45.18-40.88-76.7-70.39-93.69-87.71l-.07-.06-.06-.07c-26.15-26.45-44.93-49.61-55.83-68.83l-.23-.41-.24-.4c-11-18.58-16.35-36-16.35-53.32a67.25,67.25,0,0,1,9-34.76,65.6,65.6,0,0,1,24.52-24.58c10.34-6,21.83-8.86,35.15-8.86A72.06,72.06,0,0,1,234.32,159c2.78,1.33,11.24,5.4,27.08,24l38.1,44.82L337.6,183c3.91-4.61,15.84-18.63,27.08-24A73.12,73.12,0,0,1,397,151.47m0-50a123.21,123.21,0,0,0-53.91,12.44c-17.28,8.3-31.8,22.91-43.55,36.73-11.75-13.82-26.27-28.43-43.55-36.73a122.09,122.09,0,0,0-53.39-12.44q-33.18,0-60.14,15.55a115.45,115.45,0,0,0-42.76,42.77,117.08,117.08,0,0,0-15.81,59.88q0,39.39,23.32,78.79,19.71,34.74,63.77,79.32,27,27.48,97.46,91.24l31.1,28.51,31.62-27.48q69.47-63.24,96.94-91.75,44.07-44.6,64.28-79.32,22.82-39.92,22.81-79.31,0-32.67-15.55-59.88A113,113,0,0,0,456.83,117,118.62,118.62,0,0,0,397,101.47Z"/></svg>