<svg id="e399861c-26ef-4d05-b2e9-dd5c1e866871" data-name="Icons" xmlns="http://www.w3.org/2000/svg" viewBox="0 0 600 600"><defs><style>.ae95157b-0872-4963-8215-fe1d999a65e5{fill-rule:evenodd;}</style></defs><title>icon_core_action</title><path d="M473,125a2,2,0,0,1,2,2V366a2,2,0,0,1-2,2H127a2,2,0,0,1-2-2V127a2,2,0,0,1,2-2H473m0-50H127a52,52,0,0,0-52,52V366a52,52,0,0,0,52,52H473a52,52,0,0,0,52-52V127a52,52,0,0,0-52-52Z"/><polygon class="ae95157b-0872-4963-8215-fe1d999a65e5" points="186.68 398.9 186.68 522.9 299.5 398.9 186.68 398.9"/></svg>