<svg id="a189f9b2-7107-4ecd-9ba2-f5d0acae65bb" data-name="Icons" xmlns="http://www.w3.org/2000/svg" viewBox="0 0 600 600"><defs><style>.b1ffbee4-d24e-4f26-8347-a25739d51106{fill-rule:evenodd;}</style></defs><title>icon_core_action</title><path class="b1ffbee4-d24e-4f26-8347-a25739d51106" d="M278.1,475.08c-43.17,42.41-113.23,49.67-160.54,11.77a113.94,113.94,0,0,1-8.92-170.54L181.24,245c45.52-44.71,120-44.71,165.56,0l27.7,27.21-36.57,35.95L310.2,281a66.15,66.15,0,0,0-92.39,0l-72.58,71.28a63.5,63.5,0,0,0,5.07,95.27c26.49,21.19,65.88,16.54,90-7.19L265,416.15a26.18,26.18,0,0,1,36.58,0,25.06,25.06,0,0,1,0,35.92Zm42.8-352.16c43.17-42.41,113.23-49.67,160.54-11.77a114,114,0,0,1,8.92,170.54L417.76,353c-45.52,44.71-120,44.71-165.56,0l-27.7-27.21,36.57-35.95,27.73,27.24a66.15,66.15,0,0,0,92.39,0l72.57-71.28a63.5,63.5,0,0,0-5.06-95.27c-26.49-21.19-65.88-16.54-90,7.19L334,181.85a26.18,26.18,0,0,1-36.58,0,25.06,25.06,0,0,1,0-35.92Z"/></svg>