<svg id="be8a5968-37f1-4199-b5a9-9208136f7e79" data-name="Icons" xmlns="http://www.w3.org/2000/svg" viewBox="0 0 600 600"><title>icon_core_action</title><path d="M433,375a74.71,74.71,0,0,0-51.35,20.36L239.5,315.8a74.62,74.62,0,0,0,.09-24l142.55-87.6a74.81,74.81,0,1,0-22.26-42.66L217.19,249.19a75,75,0,1,0-.32,109L359,437.7A75,75,0,1,0,433,375Zm1-252a27,27,0,1,1-27,27A27,27,0,0,1,434,123ZM165.52,330.52a27,27,0,1,1,27-27A27,27,0,0,1,165.52,330.52ZM433,477a27,27,0,1,1,27-27A27,27,0,0,1,433,477Z"/></svg>