<svg id="a14b82a6-b949-4d93-82c8-90ba22de8084" data-name="Icons" xmlns="http://www.w3.org/2000/svg" viewBox="0 0 600 600"><path d="M170.39,537.73a34.38,34.38,0,0,1-33.79-40.15l21.7-126.5-91.91-89.6A34.31,34.31,0,0,1,85.4,223l127-18.46,56.81-115.1a34.32,34.32,0,0,1,61.54,0l56.81,115.09L514.6,223a34.31,34.31,0,0,1,19,58.53l-91.91,89.6,21.7,126.5a34.31,34.31,0,0,1-49.79,36.17L300,474,186.39,533.76A34.38,34.38,0,0,1,170.39,537.73ZM94,258.09,190.2,351.9a18,18,0,0,1,5.18,15.93L172.66,500.3l119-62.54a18,18,0,0,1,16.76,0l119,62.54L404.62,367.83a18,18,0,0,1,5.18-15.93L506,258.09,373,238.76a18,18,0,0,1-13.55-9.85L300,108.39,240.52,228.91A18,18,0,0,1,227,238.76Zm415.46.49h0Z"/></svg>