<svg id="ef93d633-6f7e-4c02-9b39-d9a8540bf31e" data-name="Icons" xmlns="http://www.w3.org/2000/svg" viewBox="0 0 600 600"><path d="M420.16,503.94a29.54,29.54,0,0,1-17.37-5.66L300,423.6,197.21,498.28a29.55,29.55,0,0,1-45.48-33L191,344.4,88.2,269.72a29.55,29.55,0,0,1,17.38-53.46H232.63L271.89,95.42a29.56,29.56,0,0,1,56.22,0l39.26,120.84H494.42a29.55,29.55,0,0,1,17.38,53.46L409,344.4l39.26,120.84a29.58,29.58,0,0,1-28.11,38.7ZM300,383.35a18,18,0,0,1,10.58,3.44l97.32,70.7-37.17-114.4A18,18,0,0,1,377.27,323l97.31-70.7H354.29a18,18,0,0,1-17.12-12.44L300,125.42l-37.17,114.4a18,18,0,0,1-17.12,12.44H125.42L222.73,323a18,18,0,0,1,6.54,20.13L192.1,457.49l97.32-70.7A18,18,0,0,1,300,383.35Zm-6.13-276.8h0Z"/></svg>