<svg id="bf199fdc-093a-4477-8e2b-4d7090cb21fb" data-name="Icons" xmlns="http://www.w3.org/2000/svg" viewBox="0 0 600 600"><path d="M260.94,519.89a18,18,0,0,1-12.73-5.27L85.38,351.79a18,18,0,0,1,0-25.46L299.44,112.27a18,18,0,0,1,14.49-5.18l148.24,14.58a18,18,0,0,1,16.16,16.16l14.58,148.24a18,18,0,0,1-5.18,14.49L273.67,514.62A18,18,0,0,1,260.94,519.89ZM123.56,339.06,260.94,476.43,456.25,281.12,444,156.05l-125.07-12.3Z"/><path d="M333.4,447.43a18,18,0,0,1-12.73-5.27L157.84,279.33a18,18,0,0,1,25.46-25.46L346.13,416.7a18,18,0,0,1-12.73,30.73Z"/><circle cx="364.34" cy="235.66" r="28.79"/></svg>