<svg id="fe94bf05-eb67-423d-9025-d22dbbd65e9e" data-name="Icons" xmlns="http://www.w3.org/2000/svg" viewBox="0 0 600 600"><title>icon_core_action</title><path d="M475,140H407.28V119.24a43,43,0,0,0-43-43H235.72a43,43,0,0,0-43,43V140H125a18,18,0,0,0,0,36h15V489a54,54,0,0,0,54,54H406a54,54,0,0,0,54-54V176h15a18,18,0,0,0,0-36ZM228.72,119.24a7,7,0,0,1,7-7H364.28a7,7,0,0,1,7,7V140H228.72ZM424,489a18,18,0,0,1-18,18H194a18,18,0,0,1-18-18V176H424Z"/><path d="M300,471a18,18,0,0,0,18-18V233a18,18,0,0,0-36,0V453A18,18,0,0,0,300,471Z"/><path d="M225,471a18,18,0,0,0,18-18V233a18,18,0,0,0-36,0V453A18,18,0,0,0,225,471Z"/><path d="M370,471a18,18,0,0,0,18-18V233a18,18,0,0,0-36,0V453A18,18,0,0,0,370,471Z"/></svg>