<svg id="e5fd2e47-9f72-4ad5-a745-97118fe5383c" data-name="Icons" xmlns="http://www.w3.org/2000/svg" viewBox="0 0 600 600"><path d="M415,493.5H185a78.09,78.09,0,0,1-78-78v-72a18,18,0,0,1,36,0v72a42,42,0,0,0,42,42H415a42,42,0,0,0,42-42v-72a18,18,0,0,1,36,0v72A78.09,78.09,0,0,1,415,493.5Z"/><path d="M375,217a18,18,0,0,1-12.73-5.27L300,149.46l-62.29,62.29a18,18,0,0,1-25.46-25.46l75-75a18,18,0,0,1,25.46,0l75,75A18,18,0,0,1,375,217Z"/><path d="M300,402a18,18,0,0,1-18-18V124a18,18,0,0,1,36,0V384A18,18,0,0,1,300,402Z"/></svg>