<svg id="b0f74005-3774-42c4-a8f2-50b4ec1eccbe" data-name="Icons" xmlns="http://www.w3.org/2000/svg" viewBox="0 0 600 600"><title>icon_core_action</title><path d="M309,386.13a98.35,98.35,0,0,1-87.24-52.86,18,18,0,0,1,31.93-16.64,62.4,62.4,0,0,0,99.4,15.28l89.39-89.38a62.35,62.35,0,1,0-88.18-88.18l-31.85,31.86A18,18,0,0,1,297,160.75l31.85-31.85A98.34,98.34,0,1,1,467.9,268l-89.38,89.39A98.08,98.08,0,0,1,309,386.13Z"/><path d="M195.35,499.8a98.34,98.34,0,0,1-69.54-167.89l89.38-89.38a98.41,98.41,0,0,1,154.55,20,18,18,0,1,1-31.1,18.13,62.37,62.37,0,0,0-98-12.72l-89.39,89.39a62.35,62.35,0,0,0,88.17,88.17l34.75-34.74a18,18,0,0,1,25.45,25.45L264.89,471A97.69,97.69,0,0,1,195.35,499.8Z"/></svg>