<svg id="e466aa95-0c20-4654-8431-ae92b3a2b740" data-name="Icons" xmlns="http://www.w3.org/2000/svg" viewBox="0 0 600 600"><path d="M223.56,479.47a18,18,0,0,1-12.73-5.27L125.3,388.67a18,18,0,0,1,0-25.46L408.17,80.34a18,18,0,0,1,25.46,0l85.53,85.53a18,18,0,0,1,0,25.46L236.29,474.2A18,18,0,0,1,223.56,479.47ZM163.48,375.94,223.56,436,481,178.6,420.9,118.52Z"/><path d="M449.89,253.15a17.92,17.92,0,0,1-12.73-5.28l-85.54-85.53a18,18,0,0,1,25.46-25.45l85.53,85.53a18,18,0,0,1-12.72,30.73Z"/><path d="M93.57,523.94a18,18,0,0,1-17-23.83l44.47-130a18,18,0,0,1,29.76-6.9l85.53,85.54a18,18,0,0,1-6.9,29.75L99.39,523A18,18,0,0,1,93.57,523.94Zm52.15-114.86L122.48,477l67.94-23.23Z"/></svg>