<svg id="f8b7cbe3-3d04-4941-a2be-ec67e796f70c" data-name="Icons" xmlns="http://www.w3.org/2000/svg" viewBox="0 0 600 600"><path d="M225.3,391.71a18,18,0,0,1-17.15-23.49l28.31-88.56a18.1,18.1,0,0,1,4.42-7.25L430.39,82.9a18,18,0,0,1,25.46,0l60.25,60.25a18,18,0,0,1,0,25.46L326.59,358.12a18.1,18.1,0,0,1-7.25,4.42l-88.56,28.31A17.86,17.86,0,0,1,225.3,391.71Zm44.12-96.93-16.35,51.15,51.15-16.35,173.69-173.7-34.79-34.79Z"/><path d="M359.12,504.5H190.88A96.49,96.49,0,0,1,94.5,408.12V239.88a96.49,96.49,0,0,1,96.38-96.38h79.77a18,18,0,0,1,0,36H190.88a60.45,60.45,0,0,0-60.38,60.38V408.12a60.45,60.45,0,0,0,60.38,60.38H359.12a60.45,60.45,0,0,0,60.38-60.38V331a18,18,0,1,1,36,0v77.08A96.49,96.49,0,0,1,359.12,504.5Z"/></svg>