<svg id="a8b7e85b-9a8a-4185-b0a5-4230858de852" data-name="Icons" xmlns="http://www.w3.org/2000/svg" viewBox="0 0 720 720"><title>notice-warning</title><path d="M360,591a231,231,0,1,1,163.34-67.66A229.49,229.49,0,0,1,360,591Zm0-420c-104.21,0-189,84.79-189,189s84.79,189,189,189,189-84.79,189-189S464.21,171,360,171Z"/><path d="M340.24,499.77a28.09,28.09,0,0,1,0-39.95,28.41,28.41,0,0,1,20.64-8.13q12.28,0,20.19,8.13a27.54,27.54,0,0,1,7.91,20,27.75,27.75,0,0,1-28.1,28.11A28.41,28.41,0,0,1,340.24,499.77ZM335.85,210.9h49.62l-8.35,210.33H343.75Z"/></svg>