<svg id="f941f5a6-b745-4353-99f6-41fbefbd84fe" data-name="Layer 2" xmlns="http://www.w3.org/2000/svg" viewBox="0 0 600 600"><defs><style>.\37 0f106f9-aa66-4740-90df-6c119ac8ee16{fill-rule:evenodd;}</style></defs><title>standard_</title><path class="70f106f9-aa66-4740-90df-6c119ac8ee16" d="M325.14,400V260.35l32,31.8a25.25,25.25,0,0,0,35.54,0,24.93,24.93,0,0,0,0-35.38l-74.87-74.45a25.24,25.24,0,0,0-35.56,0l-74.84,74.45a24.94,24.94,0,0,0,0,35.38,25.25,25.25,0,0,0,35.54,0l32-31.8V400a25.14,25.14,0,0,0,50.27,0ZM75,300C75,175.73,175.74,75,300,75S525,175.73,525,300,424.27,525,300,525,75,424.26,75,300Z"/></svg>