<svg id="e2713828-2782-421d-bc77-a8334ac391b3" data-name="Layer 2" xmlns="http://www.w3.org/2000/svg" viewBox="0 0 600 600"><defs><style>.fab1d837-d5c1-4856-9737-25847816cb2b{fill-rule:evenodd;}</style></defs><title>standard_</title><path class="fab1d837-d5c1-4856-9737-25847816cb2b" d="M319.47,367l73.23-73.88a25.22,25.22,0,0,0,0-35.47,24.66,24.66,0,0,0-35.13,0l-57.44,57.93-57.68-58.18a24.71,24.71,0,0,0-35.17,0,25.27,25.27,0,0,0,0,35.48L280.78,367A27.59,27.59,0,0,0,300.22,375,26.94,26.94,0,0,0,319.47,367ZM300,525C175.74,525,75,424.27,75,300S175.74,75,300,75,525,175.73,525,300,424.26,525,300,525Z"/></svg>