<svg id="79bd8b3b-ce18-4853-b8ee-15d0b401cd89" data-name="Layer 2" xmlns="http://www.w3.org/2000/svg" viewBox="0 0 600 600"><defs><style>.a5d8e146-b9bd-4335-abe5-bbceaca29d46{fill-rule:evenodd;}</style></defs><title>standard_</title><path class="a5d8e146-b9bd-4335-abe5-bbceaca29d46" d="M375,425h50V375H375Zm0-100h50V275H375ZM275,425h50V375H275Zm0-100h50V275H275ZM175,425h50V375H175Zm0-100h50V275H175ZM475,125h.13A49.89,49.89,0,0,1,525,174.85v300.3A49.85,49.85,0,0,1,475.13,525H124.88A49.88,49.88,0,0,1,75,475.15V174.85A49.85,49.85,0,0,1,124.88,125H125v25a50,50,0,0,0,100,0V125H375v25a50,50,0,0,0,100,0Zm-75,0V100a25,25,0,0,1,50,0v50a25,25,0,0,1-50,0Zm-200,0v25a25,25,0,0,1-50,0V100a25,25,0,0,1,50,0Z"/></svg>