<svg id="86c84c73-7483-48aa-9e44-e271f0607f6b" data-name="Layer 2" xmlns="http://www.w3.org/2000/svg" viewBox="0 0 600 600"><defs><style>.\35 b87f03c-a4d1-4ad0-a865-fa30764c975f{fill-rule:evenodd;}</style></defs><title>standard_</title><path class="5b87f03c-a4d1-4ad0-a865-fa30764c975f" d="M200,325.13H339.65l-31.8,32a25.25,25.25,0,0,0,0,35.54,24.93,24.93,0,0,0,35.38,0l74.44-74.87a25.22,25.22,0,0,0,0-35.56l-74.44-74.84a24.94,24.94,0,0,0-35.38,0,25.24,25.24,0,0,0,0,35.53l31.8,32H200a25.13,25.13,0,0,0,0,50.26ZM300,75c124.26,0,225,100.73,225,225S424.26,525,300,525,75,424.27,75,300,175.74,75,300,75Z"/></svg>