<svg id="8d3c00cc-bf67-4f97-95ee-02055f4c6500" data-name="Layer 2" xmlns="http://www.w3.org/2000/svg" viewBox="0 0 600 600"><defs><style>.a605fa0d-f905-444b-8361-17a3516aa900{fill-rule:evenodd;}</style></defs><title>standard_</title><path class="a605fa0d-f905-444b-8361-17a3516aa900" d="M307.3,107.28a25.07,25.07,0,0,0,0,35.35L439.65,275H100a25,25,0,0,0,0,50H439.65L307.22,457.4a25,25,0,1,0,35.36,35.35l175-174.95a1.84,1.84,0,0,0,.18-.12,25.18,25.18,0,0,0,0-35.4.62.62,0,0,1-.21-.13L342.65,107.28a25.1,25.1,0,0,0-35.35,0Z"/></svg>