<svg id="a0ecf71f-2150-45b4-8712-a14f959c1b94" data-name="Layer 2" xmlns="http://www.w3.org/2000/svg" viewBox="0 0 600 600"><defs><style>.ba5c7157-820a-4561-bf12-42faa2a182ba{fill-rule:evenodd;}</style></defs><title>standard_</title><path class="ba5c7157-820a-4561-bf12-42faa2a182ba" d="M242.68,282.32a25,25,0,0,0-35.36,35.36l50,50a25,25,0,0,0,35.36,0l100-100a25,25,0,0,0-35.36-35.36L275,314.64ZM100,149.85A49.88,49.88,0,0,1,149.85,100h300.3A49.88,49.88,0,0,1,500,149.85v300.3A49.88,49.88,0,0,1,450.15,500H149.85A49.88,49.88,0,0,1,100,450.15Z"/></svg>