<svg id="8be35f4b-1f53-4c81-93ec-ab10f9ffe701" data-name="Layer 2" xmlns="http://www.w3.org/2000/svg" viewBox="0 0 600 600"><defs><style>.\35 c47e7b8-2f09-44ee-b9a9-3e038f1a8600{fill-rule:evenodd;}</style></defs><title>standard_</title><path class="5c47e7b8-2f09-44ee-b9a9-3e038f1a8600" d="M274.87,200V339.65l-32-31.8a25.25,25.25,0,0,0-35.54,0,24.93,24.93,0,0,0,0,35.38l74.87,74.44a25.22,25.22,0,0,0,35.56,0l74.84-74.44a25.07,25.07,0,0,0-35.53-35.38l-32,31.8V200a25.13,25.13,0,0,0-50.26,0ZM525,300c0,124.27-100.73,225-225,225S75,424.27,75,300,175.74,75,300,75,525,175.73,525,300Z"/></svg>