<svg id="ccde6ef8-b4d7-493c-bdf2-505db4db254f" data-name="Layer 2" xmlns="http://www.w3.org/2000/svg" viewBox="0 0 600 600"><defs><style>.\34 7389654-1198-4c79-b1ee-f26c0daf8aee{fill-rule:evenodd;}</style></defs><title>standard_</title><path class="47389654-1198-4c79-b1ee-f26c0daf8aee" d="M400,274.86H260.35l31.8-32a25.25,25.25,0,0,0,0-35.54,24.92,24.92,0,0,0-35.37,0l-74.45,74.87a25.22,25.22,0,0,0,0,35.56l74.45,74.84a24.93,24.93,0,0,0,35.37,0,25.24,25.24,0,0,0,0-35.53l-31.8-32H400a25.14,25.14,0,0,0,0-50.27ZM300,525C175.74,525,75,424.27,75,300S175.74,75,300,75,525,175.73,525,300,424.27,525,300,525Z"/></svg>